<svg width="17" height="15" viewBox="0 0 17 15" fill="none" xmlns="http://www.w3.org/2000/svg">
<path d="M8.5 0C8.03054 0 7.65004 0.373038 7.65004 0.83329V8.81869L5.7058 6.91271C5.37396 6.58723 4.83577 6.58723 4.5038 6.91271C4.17181 7.23819 4.17181 7.76582 4.5038 8.09115L7.85867 11.3804C8.01449 11.5559 8.24416 11.6668 8.5 11.6668C8.73294 11.6668 8.9441 11.5749 9.09751 11.4261C9.11472 11.4118 9.13137 11.3967 9.1476 11.3808L12.5029 8.09117C12.8349 7.76583 12.8349 7.2382 12.5029 6.91274C12.1709 6.58726 11.6328 6.58726 11.3007 6.91274L9.35007 8.82528V0.833458C9.35007 0.373205 8.96942 0.000167847 8.49996 0.000167847L8.5 0Z" fill="#FF6600"/>
<path d="M0.849956 13.3333C0.380499 13.3333 0 13.7065 0 14.1667C0 14.627 0.380499 15 0.849956 15H16.15C16.6195 15 17 14.627 17 14.1667C17 13.7065 16.6195 13.3333 16.15 13.3333H0.849956Z" fill="#FF6600"/>
</svg>
