<svg width="255" height="255" viewBox="0 0 255 255" fill="none" xmlns="http://www.w3.org/2000/svg">
<path d="M18.0117 84.8899H14.0117V124.89H18.0117V84.8899Z" fill="#666666"/>
<path d="M240.012 84.8899H235.012V124.89H240.012V84.8899Z" fill="#666666"/>
<path d="M42.0117 84.8899H37.0117V124.89H42.0117V84.8899Z" fill="#666666"/>
<path d="M33.0117 84.8899H20.0117V124.89H33.0117V84.8899Z" fill="#666666"/>
<path d="M52.0117 84.8899H47.0117V124.89H52.0117V84.8899Z" fill="#666666"/>
<path d="M78.0117 84.8899H73.0117V124.89H78.0117V84.8899Z" fill="#666666"/>
<path d="M70.0117 84.8899H56.0117V124.89H70.0117V84.8899Z" fill="#666666"/>
<path d="M87.0117 84.8899H82.0117V124.89H87.0117V84.8899Z" fill="#666666"/>
<path d="M97.0117 84.8899H92.0117V124.89H97.0117V84.8899Z" fill="#666666"/>
<path d="M123.012 84.8899H118.012V124.89H123.012V84.8899Z" fill="#666666"/>
<path d="M115.012 84.8899H101.012V124.89H115.012V84.8899Z" fill="#666666"/>
<path d="M134.012 84.8899H129.012V124.89H134.012V84.8899Z" fill="#666666"/>
<path d="M160.012 84.8899H155.012V124.89H160.012V84.8899Z" fill="#666666"/>
<path d="M152.012 84.8899H138.012V124.89H152.012V84.8899Z" fill="#666666"/>
<path d="M170.012 84.8899H165.012V124.89H170.012V84.8899Z" fill="#666666"/>
<path d="M197.012 84.8899H191.012V124.89H197.012V84.8899Z" fill="#666666"/>
<path d="M188.012 84.8899H175.012V124.89H188.012V84.8899Z" fill="#666666"/>
<path d="M205.012 84.8899H200.012V124.89H205.012V84.8899Z" fill="#666666"/>
<path d="M215.012 84.8899H210.012V124.89H215.012V84.8899Z" fill="#666666"/>
<path d="M233.012 84.8899H220.012V124.89H233.012V84.8899Z" fill="#666666"/>
<path d="M18.0117 139.89H14.0117V172.89H18.0117V139.89Z" fill="#666666"/>
<path d="M240.012 139.89H235.012V172.89H240.012V139.89Z" fill="#666666"/>
<path d="M42.0117 139.89H37.0117V170.89H42.0117V139.89Z" fill="#666666"/>
<path d="M33.0117 139.89H20.0117V170.89H33.0117V139.89Z" fill="#666666"/>
<path d="M52.0117 139.89H47.0117V170.89H52.0117V139.89Z" fill="#666666"/>
<path d="M78.0117 139.89H73.0117V170.89H78.0117V139.89Z" fill="#666666"/>
<path d="M70.0117 139.89H56.0117V170.89H70.0117V139.89Z" fill="#666666"/>
<path d="M87.0117 139.89H82.0117V170.89H87.0117V139.89Z" fill="#666666"/>
<path d="M97.0117 139.89H92.0117V170.89H97.0117V139.89Z" fill="#666666"/>
<path d="M123.012 139.89H118.012V170.89H123.012V139.89Z" fill="#666666"/>
<path d="M115.012 139.89H101.012V170.89H115.012V139.89Z" fill="#666666"/>
<path d="M134.012 139.89H129.012V170.89H134.012V139.89Z" fill="#666666"/>
<path d="M160.012 139.89H155.012V170.89H160.012V139.89Z" fill="#666666"/>
<path d="M152.012 139.89H138.012V170.89H152.012V139.89Z" fill="#666666"/>
<path d="M170.012 139.89H165.012V170.89H170.012V139.89Z" fill="#666666"/>
<path d="M197.012 139.89H191.012V170.89H197.012V139.89Z" fill="#666666"/>
<path d="M188.012 139.89H175.012V170.89H188.012V139.89Z" fill="#666666"/>
<path d="M205.012 139.89H200.012V170.89H205.012V139.89Z" fill="#666666"/>
<path d="M215.012 139.89H210.012V170.89H215.012V139.89Z" fill="#666666"/>
<path d="M233.012 139.89H220.012V170.89H233.012V139.89Z" fill="#666666"/>
<path d="M245.794 115.89C242.182 115.915 239.769 119.509 238.538 124.31H15.4969C14.2716 119.509 11.8466 115.928 8.23455 115.89C-2.72923 115.978 -2.72923 148.789 8.23455 148.89C11.6679 148.852 14.0291 145.623 15.3119 141.174H238.723C240.005 145.61 242.36 148.865 245.794 148.89C256.751 148.802 256.751 115.99 245.794 115.89Z" fill="#FF6600"/>
<path d="M0.0117188 0.889893H99.0117V14H14V80.8899H0.0117188V0.889893Z" fill="black"/>
<path d="M254.012 254.89H155.012V243H240V174.89H254.012V254.89Z" fill="black"/>
<path d="M253.512 0.889893H154.512V14H239.5L240 80.8899H253.512V0.889893Z" fill="black"/>
<path d="M0.0117188 254.89H99.0117V243H14V174.89H0.0117188V254.89Z" fill="black"/>
</svg>
