<svg width="213" height="16" viewBox="0 0 213 16" fill="none" xmlns="http://www.w3.org/2000/svg">
<path d="M8.99763 14.6607V3.89635C8.99763 3.56817 8.72497 3.23999 8.31599 3.23999H3.13554C2.79472 3.23999 2.4539 3.50254 2.4539 3.89635V14.0043C2.4539 14.3325 2.18124 14.6607 1.77226 14.6607H0.681637C0.340818 14.6607 0 14.3982 0 14.0043V1.73036C0 1.40217 0.272654 1.07399 0.681637 1.07399H10.8381C11.1789 1.07399 11.5197 1.33654 11.5197 1.73036V14.0043C11.5197 14.3325 11.247 14.6607 10.8381 14.6607H8.99763ZM24.4027 10.3287H22.2896C21.9488 10.3287 21.6079 10.5913 21.6079 10.9851V14.07C21.6079 14.3982 21.3353 14.7263 20.9263 14.7263H19.7675C19.4267 14.7263 19.0859 14.4638 19.0859 14.07V1.73036C19.0859 1.40217 19.3585 1.07399 19.7675 1.07399H24.6753C27.9472 1.07399 30.0603 2.84617 30.0603 5.66853C30.0603 8.6878 27.5382 10.3287 24.4027 10.3287ZM24.4708 3.23999H22.2896C21.9488 3.23999 21.6079 3.50254 21.6079 3.89635V7.50635C21.6079 7.83453 21.8806 8.16271 22.2896 8.16271H24.4708C26.3112 8.16271 27.5382 7.17817 27.5382 5.66853C27.5382 4.09326 26.3794 3.23999 24.4708 3.23999ZM43.3522 14.9233C39.0579 14.9233 35.9905 11.7727 35.9905 7.90017C35.9905 4.09326 39.0579 0.877085 43.3522 0.877085C47.6465 0.877085 50.7139 4.02763 50.7139 7.90017C50.7139 11.7071 47.6465 14.9233 43.3522 14.9233ZM43.3522 3.04308C40.5575 3.04308 38.5807 5.20908 38.5807 7.90017C38.5807 10.5256 40.5575 12.7573 43.3522 12.7573C46.1469 12.7573 48.1237 10.5913 48.1237 7.90017C48.1237 5.27472 46.1469 3.04308 43.3522 3.04308ZM66.3916 13.7418V14.5951C66.3916 14.9233 66.1189 15.2514 65.71 15.2514H64.6193C64.2785 15.2514 63.9377 14.9889 63.9377 14.5951V14.3982C63.9377 14.07 63.665 13.8074 63.3242 13.7418C59.3025 13.4793 56.9168 11.1163 56.9168 7.83453C56.9168 4.55272 59.3025 2.18981 63.3242 1.9929C63.665 1.9929 64.0059 1.73036 64.0059 1.33654C64.0059 1.00836 64.2785 0.680176 64.6875 0.680176H65.7781C66.1189 0.680176 66.4597 0.942722 66.4597 1.33654C66.4597 1.66472 66.7324 1.92727 67.1414 1.9929C71.1631 2.18981 73.5488 4.55272 73.5488 7.83453C73.4125 11.2476 70.8222 13.7418 66.3916 13.7418ZM63.9377 4.02763C61.143 4.02763 59.4389 5.47163 59.4389 7.83453C59.4389 10.0005 60.8703 11.3789 63.1879 11.5758C63.5969 11.6414 63.9377 11.3133 63.9377 10.9194V4.02763ZM66.3916 4.02763V10.9194C66.3916 11.3133 66.7324 11.5758 67.1414 11.5758C69.5271 11.3789 70.8904 10.0005 70.8904 7.83453C70.8904 5.47163 69.1863 4.02763 66.3916 4.02763Z" fill="#172139"/>
<path d="M114.036 3.06163C111.327 3.06163 109.431 5.14815 109.431 7.8867C109.431 10.4949 111.395 12.7118 114.036 12.7118C115.729 12.7118 116.88 12.0597 118.031 10.9513L119.588 12.5162C118.099 13.9506 116.541 14.9287 113.9 14.9287C109.905 14.8635 106.858 11.7989 106.858 7.8867C106.858 4.03968 109.837 0.909907 114.103 0.909907C116.677 0.909907 118.234 1.75756 119.588 2.99643L118.031 4.75692C116.88 3.77887 115.661 3.06163 114.036 3.06163ZM132.928 14.8635C128.662 14.8635 125.615 11.7337 125.615 7.8867C125.615 4.10489 128.662 0.909907 132.928 0.909907C137.194 0.909907 140.241 4.03968 140.241 7.8867C140.241 11.6685 137.194 14.8635 132.928 14.8635ZM132.928 3.06163C130.152 3.06163 128.188 5.21335 128.188 7.8867C128.188 10.4949 130.152 12.7118 132.928 12.7118C135.704 12.7118 137.668 10.5601 137.668 7.8867C137.668 5.27855 135.704 3.06163 132.928 3.06163ZM153.784 3.06163C151.076 3.06163 149.18 5.14815 149.18 7.8867C149.18 10.4949 151.143 12.7118 153.784 12.7118C155.477 12.7118 156.628 12.0597 157.779 10.9513L159.337 12.5162C157.847 13.9506 156.29 14.9287 153.649 14.9287C149.586 14.9287 146.539 11.8641 146.539 7.95191C146.606 4.03969 149.586 0.909907 153.852 0.909907C156.425 0.909907 157.982 1.75756 159.337 2.99643L157.779 4.75692C156.628 3.77887 155.409 3.06163 153.784 3.06163ZM171.932 3.32244V14.6027H169.426V3.32244H164.957V1.17072H176.333V3.38765H171.932V3.32244ZM191.907 14.6027L190.485 11.3425H183.849L182.427 14.6027H179.922L186.084 1.04031H188.386L194.548 14.6027H191.907ZM187.167 3.84407L184.797 9.25598H189.605L187.167 3.84407ZM209.784 7.62589C211.409 8.14752 212.56 9.06037 212.56 10.9513C212.56 13.3638 210.529 14.6679 207.414 14.6679H200.913V1.17072H207.211C208.836 1.17072 210.055 1.62715 210.868 2.34439C211.477 2.93122 211.816 3.64846 211.816 4.62652C211.816 6.19141 210.868 7.10426 209.784 7.62589ZM206.872 3.25724H203.351V6.84344H206.737C208.294 6.84344 209.378 6.25661 209.378 4.95254C209.378 3.90928 208.498 3.25724 206.872 3.25724ZM207.279 8.79955H203.351V12.5162H207.414C209.107 12.5162 210.123 11.8641 210.123 10.6253C210.123 9.51679 209.175 8.79955 207.279 8.79955Z" fill="#172139"/>
<path fill-rule="evenodd" clip-rule="evenodd" d="M8.99763 14.6607V3.89635C8.99763 3.56817 8.72497 3.23999 8.31599 3.23999H3.13554C2.79472 3.23999 2.4539 3.50254 2.4539 3.89635V14.0043C2.4539 14.3325 2.18124 14.6607 1.77226 14.6607H0.681637C0.340818 14.6607 0 14.3982 0 14.0043V1.73036C0 1.40217 0.272654 1.07399 0.681637 1.07399H10.8381C11.1789 1.07399 11.5197 1.33654 11.5197 1.73036V14.0043C11.5197 14.3325 11.247 14.6607 10.8381 14.6607H8.99763ZM24.4027 10.3287H22.2896C21.9488 10.3287 21.6079 10.5913 21.6079 10.9851V14.07C21.6079 14.3982 21.3353 14.7263 20.9263 14.7263H19.7675C19.4267 14.7263 19.0859 14.4638 19.0859 14.07V1.73036C19.0859 1.40217 19.3585 1.07399 19.7675 1.07399H24.6753C27.9472 1.07399 30.0603 2.84617 30.0603 5.66853C30.0603 8.6878 27.5382 10.3287 24.4027 10.3287ZM43.3522 14.9233C39.0579 14.9233 35.9905 11.7727 35.9905 7.90017C35.9905 4.09326 39.0579 0.877085 43.3522 0.877085C47.6465 0.877085 50.7139 4.02763 50.7139 7.90017C50.7139 11.7071 47.6465 14.9233 43.3522 14.9233ZM66.3916 13.7418V14.5951C66.3916 14.9233 66.1189 15.2514 65.71 15.2514H64.6193C64.2785 15.2514 63.9377 14.9889 63.9377 14.5951V14.3982C63.9377 14.07 63.665 13.8074 63.3242 13.7418C59.3025 13.4793 56.9168 11.1163 56.9168 7.83453C56.9168 4.55272 59.3025 2.18981 63.3242 1.9929C63.665 1.9929 64.0059 1.73036 64.0059 1.33654C64.0059 1.00836 64.2785 0.680176 64.6875 0.680176H65.7781C66.1189 0.680176 66.4597 0.942722 66.4597 1.33654C66.4597 1.66472 66.7324 1.92727 67.1414 1.9929C71.1631 2.18981 73.5488 4.55272 73.5488 7.83453C73.4125 11.2476 70.8222 13.7418 66.3916 13.7418ZM66.3916 4.02763V10.9194C66.3916 11.3133 66.7324 11.5758 67.1414 11.5758C69.5271 11.3789 70.8904 10.0005 70.8904 7.83453C70.8904 5.47163 69.1863 4.02763 66.3916 4.02763ZM59.4389 7.83453C59.4389 5.47163 61.143 4.02763 63.9377 4.02763V10.9194C63.9377 11.3133 63.5969 11.6414 63.1879 11.5758C60.8703 11.3789 59.4389 10.0005 59.4389 7.83453ZM43.3522 3.04308C40.5575 3.04308 38.5807 5.20908 38.5807 7.90017C38.5807 10.5256 40.5575 12.7573 43.3522 12.7573C46.1469 12.7573 48.1237 10.5913 48.1237 7.90017C48.1237 5.27472 46.1469 3.04308 43.3522 3.04308ZM22.2896 3.23999H24.4708C26.3794 3.23999 27.5382 4.09326 27.5382 5.66853C27.5382 7.17817 26.3112 8.16271 24.4708 8.16271H22.2896C21.8806 8.16271 21.6079 7.83453 21.6079 7.50635V3.89635C21.6079 3.50254 21.9488 3.23999 22.2896 3.23999Z" fill="#172139"/>
<path fill-rule="evenodd" clip-rule="evenodd" d="M114.036 3.06163C111.327 3.06163 109.431 5.14815 109.431 7.8867C109.431 10.4949 111.395 12.7118 114.036 12.7118C115.729 12.7118 116.88 12.0597 118.031 10.9513L119.588 12.5162C118.099 13.9506 116.541 14.9287 113.9 14.9287C109.905 14.8635 106.858 11.7989 106.858 7.8867C106.858 4.03968 109.837 0.909907 114.103 0.909907C116.677 0.909907 118.234 1.75756 119.588 2.99643L118.031 4.75692C116.88 3.77887 115.661 3.06163 114.036 3.06163ZM132.928 14.8635C128.662 14.8635 125.615 11.7337 125.615 7.8867C125.615 4.10489 128.662 0.909907 132.928 0.909907C137.194 0.909907 140.241 4.03968 140.241 7.8867C140.241 11.6685 137.194 14.8635 132.928 14.8635ZM153.784 3.06163C151.076 3.06163 149.18 5.14815 149.18 7.8867C149.18 10.4949 151.143 12.7118 153.784 12.7118C155.477 12.7118 156.628 12.0597 157.779 10.9513L159.337 12.5162C157.847 13.9506 156.29 14.9287 153.649 14.9287C149.586 14.9287 146.539 11.8641 146.539 7.95191C146.606 4.03969 149.586 0.909907 153.852 0.909907C156.425 0.909907 157.982 1.75756 159.337 2.99643L157.779 4.75692C156.628 3.77887 155.409 3.06163 153.784 3.06163ZM171.932 3.38765V14.6027H169.426V3.32244H164.957V1.17072H176.333V3.38765H171.932ZM191.907 14.6027L190.485 11.3425H183.849L182.427 14.6027H179.922L186.084 1.04031H188.386L194.548 14.6027H191.907ZM209.784 7.62589C211.409 8.14752 212.56 9.06037 212.56 10.9513C212.56 13.3638 210.529 14.6679 207.414 14.6679H200.913V1.17072H207.211C208.836 1.17072 210.055 1.62715 210.868 2.34439C211.477 2.93122 211.816 3.64846 211.816 4.62652C211.816 6.19141 210.868 7.10426 209.784 7.62589ZM132.928 3.06163C130.152 3.06163 128.188 5.21335 128.188 7.8867C128.188 10.4949 130.152 12.7118 132.928 12.7118C135.704 12.7118 137.668 10.5601 137.668 7.8867C137.668 5.27855 135.704 3.06163 132.928 3.06163ZM203.351 3.25724H206.872C208.498 3.25724 209.378 3.90928 209.378 4.95254C209.378 6.25661 208.294 6.84344 206.737 6.84344H203.351V3.25724ZM207.279 8.79955H203.351V12.5162H207.414C209.107 12.5162 210.123 11.8641 210.123 10.6253C210.123 9.51679 209.175 8.79955 207.279 8.79955ZM184.797 9.25598L187.167 3.84407L189.605 9.25598H184.797Z" fill="#172139"/>
</svg>
