<svg width="20" height="34" viewBox="0 0 20 34" fill="none" xmlns="http://www.w3.org/2000/svg">
<path d="M5.04866 27.3114L10.0338 6.45504H14.847L19.8321 27.3114L12.3258 33.2703L5.04866 27.3114Z" fill="#FF6600"/>
<path d="M14.847 5.18601H10.0338L8.25747 2.53759C7.76202 1.59052 8.87851 0.721046 9.63664 0.661621H15.2998C15.9966 0.661621 16.8505 1.83624 16.4514 2.53759L14.847 5.18601Z" fill="#FF6600"/>
<path d="M0.858398 21.0474V16.2794L8.74426 7.7324L5.69995 19.8819L0.858398 21.0474Z" fill="#FF6600"/>
<path d="M8.25738 2.5371C7.76193 1.59003 8.87842 0.720558 9.63655 0.661133H12.4681L12.4403 5.18552H10.0337L8.25738 2.5371Z" fill="url(#paint0_linear_2286_23611)"/>
<path d="M12.3145 6.45508H14.8446L17.114 15.9242L12.3145 20.6714V6.45508Z" fill="url(#paint1_linear_2286_23611)"/>
<path fill-rule="evenodd" clip-rule="evenodd" d="M6.64473 20.5273L6.25582 22.1544C9.51678 18.9816 16.0777 12.5811 16.2336 12.3618L16.0387 11.5465L6.64473 20.5273ZM14.8216 6.45459L15.0864 7.56224L8.17153 14.1396L8.48246 12.8388L14.8216 6.45459ZM17.1438 16.17L5.29492 27.5333L6.00681 28.1163L17.395 17.2208L17.1438 16.17ZM9.22444 30.7511L8.52966 30.1611L18.2693 20.8788L18.54 22.011L9.22444 30.7511Z" fill="white"/>
<defs>
<linearGradient id="paint0_linear_2286_23611" x1="10.3014" y1="5.18552" x2="13.916" y2="2.82559" gradientUnits="userSpaceOnUse">
<stop stop-color="#EA7438" stop-opacity="0"/>
<stop offset="1" stop-color="#EA8D38"/>
</linearGradient>
<linearGradient id="paint1_linear_2286_23611" x1="12.3145" y1="20.6714" x2="17.1122" y2="21.0175" gradientUnits="userSpaceOnUse">
<stop stop-color="#EAB838"/>
<stop offset="1" stop-color="#EA7438" stop-opacity="0"/>
</linearGradient>
</defs>
</svg>
