<?xml version="1.0" encoding="UTF-8"?><svg id="_Слой_2" xmlns="http://www.w3.org/2000/svg" viewBox="0 0 2218.86 260.57"><defs><style>.cls-1{fill:#f60;}.cls-2{fill:#666;}</style></defs><rect class="cls-2" x="72.33" y="77.64" width="4.14" height="45.78"/><rect class="cls-2" x="323.38" y="77.64" width="4.14" height="45.71"/><rect class="cls-2" x="98.35" y="77.64" width="6" height="45.71"/><rect class="cls-2" x="78.93" y="77.64" width="15.18" height="45.71"/><rect class="cls-2" x="108.7" y="77.64" width="6" height="45.71"/><rect class="cls-2" x="139.35" y="77.64" width="6" height="45.71"/><rect class="cls-2" x="119.93" y="77.64" width="15.18" height="45.71"/><rect class="cls-2" x="149.35" y="77.64" width="6" height="45.71"/><rect class="cls-2" x="159.7" y="77.64" width="6" height="45.71"/><rect class="cls-2" x="190.35" y="77.64" width="6" height="45.71"/><rect class="cls-2" x="170.93" y="77.64" width="15.18" height="45.71"/><rect class="cls-2" x="201.7" y="77.64" width="6" height="45.71"/><rect class="cls-2" x="232.35" y="77.64" width="6" height="45.71"/><rect class="cls-2" x="212.93" y="77.64" width="15.18" height="45.71"/><rect class="cls-2" x="242.7" y="77.64" width="6" height="45.71"/><rect class="cls-2" x="273.35" y="77.64" width="6" height="45.71"/><rect class="cls-2" x="253.93" y="77.64" width="15.18" height="45.71"/><rect class="cls-2" x="283.35" y="77.64" width="6" height="45.71"/><rect class="cls-2" x="293.7" y="77.64" width="6" height="45.71"/><rect class="cls-2" x="304.93" y="77.64" width="15.18" height="45.71"/><rect class="cls-2" x="72.33" y="136.75" width="4.14" height="47.9"/><rect class="cls-2" x="323.38" y="136.75" width="4.14" height="47.9"/><rect class="cls-2" x="98.35" y="136.75" width="6" height="45.71"/><rect class="cls-2" x="78.93" y="136.75" width="15.18" height="45.71"/><rect class="cls-2" x="108.7" y="136.75" width="6" height="45.71"/><rect class="cls-2" x="139.35" y="136.75" width="6" height="45.71"/><rect class="cls-2" x="119.93" y="136.75" width="15.18" height="45.71"/><rect class="cls-2" x="149.35" y="136.75" width="6" height="45.71"/><rect class="cls-2" x="159.7" y="136.75" width="6" height="45.71"/><rect class="cls-2" x="190.35" y="136.75" width="6" height="45.71"/><rect class="cls-2" x="170.93" y="136.75" width="15.18" height="45.71"/><rect class="cls-2" x="201.7" y="136.75" width="6" height="45.71"/><rect class="cls-2" x="232.35" y="136.75" width="6" height="45.71"/><rect class="cls-2" x="212.93" y="136.75" width="15.18" height="45.71"/><rect class="cls-2" x="242.7" y="136.75" width="6" height="45.71"/><rect class="cls-2" x="273.35" y="136.75" width="6" height="45.71"/><rect class="cls-2" x="253.93" y="136.75" width="15.18" height="45.71"/><rect class="cls-2" x="283.35" y="136.75" width="6" height="45.71"/><rect class="cls-2" x="293.7" y="136.75" width="6" height="45.71"/><rect class="cls-2" x="304.93" y="136.75" width="15.18" height="45.71"/><path d="M476.52,44.47v72.42c0,27.33-.35,44.38-1.77,68.87l1.06.35c10.29-20.94,16.33-33.01,27.69-52.89l53.6-88.75h36.56v171.82h-29.82v-72.77c0-28.04.71-42.6,2.13-70.29h-1.06c-11,22.01-18.46,35.85-28.4,53.25-16.33,26.62-35.14,59.64-53.6,89.81h-35.85V44.47h29.46Z"/><path d="M674.61,44.47v69.22h81.65V44.47h30.88v171.82h-30.88v-77.74h-81.65v77.74h-30.88V44.47h30.88Z"/><path d="M837.55,46.6c12.07-2.13,34.43-3.9,54.67-3.9,28.75,0,76.32,4.61,76.32,42.95,0,21.3-16.33,34.43-35.85,38.69v.71c25.2,3.55,43.66,17.75,43.66,42.6,0,45.08-56.8,50.76-90.52,50.76-19.17,0-39.05-1.42-48.28-2.13V46.59h0ZM867.01,195.7c8.88,1.07,15.26,1.42,25.2,1.42,20.94,0,52.18-4.97,52.18-29.82s-24.85-30.17-54.67-30.17h-22.72v58.57h0ZM867.37,116.54h23.43c23.07,0,46.86-6.75,46.86-26.98,0-17.04-14.91-25.21-46.15-25.21-10.29,0-16.68.71-24.14,1.42v50.76h0Z"/><path d="M1033.15,136.06c.71,42.25,27.69,59.64,58.93,59.64,22.36,0,35.85-3.91,47.57-8.88l5.32,22.37c-11,4.97-29.82,10.65-57.15,10.65-52.89,0-84.49-34.79-84.49-86.62s30.53-92.65,80.58-92.65c56.09,0,71,49.34,71,80.94,0,6.39-.71,11.36-1.07,14.55h-120.7.01ZM1124.74,113.7c.35-19.88-8.17-50.76-43.31-50.76-31.59,0-45.44,29.11-47.92,50.76h91.23Z"/><path d="M1223.78,44.47v69.22h81.65V44.47h30.88v171.82h-30.88v-77.74h-81.65v77.74h-30.88V44.47h30.88Z"/><path d="M1502.45,44.47v24.85h-53.6v146.97h-30.88V69.32h-53.6v-24.85h138.09-.01Z"/><path d="M1647.66,209.9c-8.17,4.26-26.27,9.94-49.34,9.94-51.83,0-85.55-35.14-85.55-87.68s36.21-91.23,92.3-91.23c18.46,0,34.79,4.62,43.31,8.88l-7.1,24.14c-7.46-4.26-19.17-8.17-36.21-8.17-39.41,0-60.71,29.11-60.71,64.96,0,39.76,25.56,64.25,59.64,64.25,17.75,0,29.46-4.62,38.34-8.52l5.33,23.43h-.01Z"/><path d="M1837.57,128.96c0,63.54-44.02,91.23-85.55,91.23-46.5,0-82.36-34.08-82.36-88.39,0-57.51,37.63-91.23,85.2-91.23s82.71,35.85,82.71,88.39h0ZM1701.26,130.74c0,37.63,21.66,66.03,52.18,66.03s52.18-28.04,52.18-66.74c0-29.11-14.55-66.03-51.47-66.03s-52.89,34.08-52.89,66.74h0Z"/><path d="M1979.21,11.24v30.03c50.05,3.55,86.26,35.14,86.26,88.75,0,56.45-38.34,86.26-86.26,89.46v41.09h-28.4v-40.74c-49.7-3.19-86.26-34.43-86.26-88.04,0-56.8,37.98-86.62,86.26-90.52V11.24h28.4ZM1950.81,62.58c-34.79,4.62-55.38,33.01-55.38,68.16s21.3,63.19,55.38,67.45V62.58ZM1979.21,198.19c34.43-4.62,55.38-33.01,55.38-68.16s-20.95-62.48-55.38-67.45v135.61h0Z"/><path d="M2218.85,44.47v24.85h-53.6v146.97h-30.88V69.32h-53.6v-24.85h138.09-.01Z"/><path class="cls-1" d="M385.14,116.65c-5.66.02-9.44,2.88-11.37,6.7H24.27c-1.92-3.82-5.72-6.67-11.38-6.7-17.18.07-17.18,26.18,0,26.26,5.38-.03,9.08-2.6,11.09-6.14h350.08c2.01,3.53,5.7,6.12,11.08,6.14,17.17-.07,17.17-26.18,0-26.26Z"/><polygon points="20.02 0 132.18 0 132.18 6.82 29.64 6.82 29.64 79.51 20.02 79.51 20.02 0"/><polygon points="378.02 253.78 265.86 253.78 265.86 246.96 368.4 246.96 368.4 174.27 378.02 174.27 378.02 253.78"/><polygon points="378.02 0 265.86 0 265.86 6.82 368.4 6.82 368.4 79.51 378.02 79.51 378.02 0"/><polygon points="20.02 253.78 132.18 253.78 132.18 246.96 29.64 246.96 29.64 174.27 20.02 174.27 20.02 253.78"/></svg>