<svg width="15" height="14" viewBox="0 0 15 14" fill="none" xmlns="http://www.w3.org/2000/svg">
<path d="M0.98725 0H11.0984L13.9816 2.88322C14.1275 3.02905 14.2094 3.22685 14.2095 3.43311V13.2222C14.2095 13.4285 14.1275 13.6263 13.9817 13.7722C13.8358 13.9181 13.638 14 13.4317 14H0.98725C0.780971 14 0.58314 13.9181 0.437278 13.7722C0.291417 13.6263 0.209473 13.4285 0.209473 13.2222V0.777778C0.209473 0.571498 0.291417 0.373667 0.437278 0.227806C0.58314 0.0819442 0.780971 0 0.98725 0ZM7.20947 11.6667C7.82831 11.6667 8.4218 11.4208 8.85939 10.9832C9.29697 10.5457 9.54281 9.95217 9.54281 9.33333C9.54281 8.71449 9.29697 8.121 8.85939 7.68342C8.4218 7.24583 7.82831 7 7.20947 7C6.59063 7 5.99714 7.24583 5.55956 7.68342C5.12197 8.121 4.87614 8.71449 4.87614 9.33333C4.87614 9.95217 5.12197 10.5457 5.55956 10.9832C5.99714 11.4208 6.59063 11.6667 7.20947 11.6667ZM1.76503 1.55556V4.66667H9.54281V1.55556H1.76503Z" fill="white"/>
</svg>
