<svg width="11" height="11" viewBox="0 0 11 11" fill="none" xmlns="http://www.w3.org/2000/svg">
<path d="M7.9961 8.75032L8.74565 8.00232L11 10.252L10.2505 11L7.9961 8.75032Z" fill="#AEAEAE"/>
<path fill-rule="evenodd" clip-rule="evenodd" d="M0 4.91566C0 7.63058 2.20531 9.83132 4.92586 9.83132C7.64641 9.83132 9.85172 7.63058 9.85172 4.91566C9.85172 2.20074 7.64641 0 4.92586 0C2.20531 0 0 2.20074 0 4.91566ZM4.92586 8.19276C6.73951 8.19276 8.20976 6.72555 8.20976 4.91566C8.20976 3.10576 6.73951 1.63855 4.92586 1.63855C3.11221 1.63855 1.64195 3.10576 1.64195 4.91566C1.64195 6.72555 3.11221 8.19276 4.92586 8.19276Z" fill="#AEAEAE"/>
</svg>
