<svg width="21" height="18" viewBox="0 0 21 18" fill="none" xmlns="http://www.w3.org/2000/svg">
<path d="M19.016 10.636L17.881 10.4047C17.8567 10.3997 17.8311 10.4047 17.81 10.4182C17.789 10.432 17.7743 10.4539 17.7694 10.4782C17.658 11.0241 17.4839 11.5603 17.2512 12.0718C17.2231 12.1331 17.194 12.1953 17.1644 12.2561C16.2947 14.0396 14.7825 15.3776 12.9066 16.0232C12.1192 16.2946 11.3033 16.4318 10.4822 16.4318C9.35337 16.4318 8.26006 16.1772 7.23189 15.6758C5.56666 14.8637 4.28543 13.4909 3.60257 11.7938L5.15686 12.5517C5.17943 12.5627 5.20545 12.5644 5.2291 12.556C5.25275 12.5481 5.27232 12.5309 5.28328 12.5081L5.79113 11.467C5.81392 11.4199 5.79457 11.3634 5.74748 11.3402L2.31855 9.66806C2.27168 9.64548 2.21513 9.66462 2.19212 9.71128L0.865314 12.4135C0.862734 12.4184 0.860799 12.424 0.859294 12.4294L0.824893 12.4996L0.509692 13.1432C0.486686 13.1903 0.506037 13.2469 0.552909 13.2701L0.824893 13.4034L1.59311 13.7799C1.61547 13.7913 1.64171 13.7925 1.66536 13.7844C1.68901 13.7762 1.70857 13.7592 1.71975 13.7364L2.38778 12.3737C2.6718 13.0561 3.03753 13.6969 3.47701 14.281C4.31511 15.3956 5.37961 16.2724 6.64084 16.8876C7.70534 17.4066 8.84015 17.7018 10.0137 17.7648C10.171 17.7732 10.3308 17.7779 10.4877 17.7779C11.4585 17.7779 12.4196 17.6162 13.345 17.2976C14.4224 16.9267 15.4024 16.3608 16.2579 15.6149C17.1439 14.8431 17.8563 13.9117 18.3757 12.8472C18.4105 12.7753 18.445 12.7022 18.4778 12.6296C18.7524 12.026 18.9586 11.3928 19.0902 10.7474C19.1005 10.6962 19.0674 10.6461 19.016 10.636Z" fill="white"/>
<path d="M20.495 4.776C20.4871 4.75235 20.4699 4.73278 20.4471 4.7216L20.1755 4.58774L19.4082 4.20946C19.3856 4.19828 19.3598 4.19656 19.3359 4.20473C19.3121 4.2129 19.2927 4.2301 19.2813 4.25246L18.5963 5.64269C18.2314 4.7588 17.7279 3.94629 17.0984 3.22494C16.3271 2.34126 15.3972 1.63023 14.3347 1.11206C13.2702 0.59282 12.1353 0.297615 10.9616 0.234618C10.8042 0.226232 10.6447 0.221932 10.4877 0.221932C9.51699 0.221932 8.55569 0.383403 7.6303 0.702043C6.5529 1.07315 5.5729 1.63926 4.71738 2.38469C3.83155 3.15678 3.11902 4.08798 2.59978 5.15269C2.27619 5.81621 2.0371 6.51605 1.88939 7.23289C1.88445 7.2574 1.88918 7.28298 1.90294 7.30406C1.9167 7.32513 1.9382 7.33975 1.96293 7.34469L3.09752 7.57862C3.14869 7.58916 3.19879 7.55626 3.20932 7.50509C3.33446 6.89855 3.53678 6.30578 3.81113 5.74353C4.68083 3.96026 6.19319 2.62227 8.06913 1.97639C8.85649 1.70527 9.67223 1.56788 10.4938 1.56788C11.6221 1.56788 12.7157 1.82223 13.7436 2.32363C15.3875 3.12539 16.6617 4.48402 17.3538 6.16624L15.8408 5.43693C15.7935 5.41436 15.7371 5.43392 15.7144 5.48122L15.2112 6.52487C15.1887 6.57196 15.2084 6.6285 15.2555 6.65108L18.6827 8.30298C18.6963 8.30921 18.7101 8.31222 18.7238 8.31222C18.7586 8.31222 18.7922 8.29287 18.8087 8.25933L20.1755 5.48604L20.4897 4.84867C20.5015 4.82588 20.503 4.79987 20.495 4.776Z" fill="white"/>
<path fill-rule="evenodd" clip-rule="evenodd" d="M0.824893 13.4034V12.4996L0.859294 12.4294C0.860799 12.424 0.862734 12.4184 0.865314 12.4135L2.19212 9.71128C2.21513 9.66462 2.27168 9.64548 2.31855 9.66806L5.74748 11.3402C5.79457 11.3634 5.81392 11.4199 5.79113 11.467L5.28328 12.5081C5.27232 12.5309 5.25275 12.5481 5.2291 12.556C5.20545 12.5644 5.17943 12.5627 5.15686 12.5517L3.60257 11.7938C4.28543 13.4909 5.56666 14.8637 7.23189 15.6758C8.26006 16.1772 9.35337 16.4318 10.4822 16.4318C11.3033 16.4318 12.1192 16.2946 12.9066 16.0232C14.7825 15.3776 16.2947 14.0396 17.1644 12.2561C17.194 12.1953 17.2231 12.1331 17.2512 12.0718C17.4839 11.5603 17.658 11.0241 17.7694 10.4782C17.7743 10.4539 17.789 10.432 17.81 10.4182C17.8311 10.4047 17.8567 10.3997 17.881 10.4047L19.016 10.636C19.0674 10.6461 19.1005 10.6962 19.0902 10.7474C18.9586 11.3928 18.7524 12.026 18.4778 12.6296C18.445 12.7022 18.4105 12.7753 18.3757 12.8472C17.8563 13.9117 17.1439 14.8431 16.2579 15.6149C15.4024 16.3608 14.4224 16.9267 13.345 17.2976C12.4196 17.6162 11.4585 17.7779 10.4877 17.7779C10.3308 17.7779 10.171 17.7732 10.0137 17.7648C8.84015 17.7018 7.70534 17.4066 6.64084 16.8876C5.37961 16.2724 4.31511 15.3956 3.47701 14.281C3.03753 13.6969 2.6718 13.0561 2.38778 12.3737L1.71975 13.7364C1.70857 13.7592 1.68901 13.7762 1.66536 13.7844C1.64171 13.7925 1.61547 13.7913 1.59311 13.7799L0.824893 13.4034ZM20.1755 5.48604V4.58774L19.4082 4.20946C19.3856 4.19828 19.3598 4.19656 19.3359 4.20473C19.3121 4.2129 19.2927 4.2301 19.2813 4.25246L18.5963 5.64269C18.2314 4.7588 17.7279 3.94629 17.0984 3.22494C16.3271 2.34126 15.3972 1.63023 14.3347 1.11206C13.2702 0.59282 12.1353 0.297615 10.9616 0.234618C10.8042 0.226232 10.6447 0.221932 10.4877 0.221932C9.51699 0.221932 8.55569 0.383403 7.6303 0.702043C6.5529 1.07315 5.5729 1.63926 4.71738 2.38469C3.83155 3.15678 3.11902 4.08798 2.59978 5.15269C2.27619 5.81621 2.0371 6.51605 1.88939 7.23289C1.88445 7.2574 1.88918 7.28298 1.90294 7.30406C1.9167 7.32513 1.9382 7.33975 1.96293 7.34469L3.09752 7.57862C3.14869 7.58916 3.19879 7.55626 3.20932 7.50509C3.33446 6.89855 3.53678 6.30578 3.81113 5.74353C4.68083 3.96026 6.19319 2.62227 8.06913 1.97639C8.85649 1.70527 9.67223 1.56788 10.4938 1.56788C11.6221 1.56788 12.7157 1.82223 13.7436 2.32363C15.3875 3.12539 16.6617 4.48402 17.3538 6.16624L15.8408 5.43693C15.7935 5.41436 15.7371 5.43392 15.7144 5.48122L15.2112 6.52487C15.1887 6.57196 15.2084 6.6285 15.2555 6.65108L18.6827 8.30298C18.6963 8.30921 18.7101 8.31222 18.7238 8.31222C18.7586 8.31222 18.7922 8.29287 18.8087 8.25933L20.1755 5.48604Z" fill="white"/>
</svg>
