<svg width="13" height="12" viewBox="0 0 13 12" fill="none" xmlns="http://www.w3.org/2000/svg">
<path d="M2.35869 11.1426H10.1461C10.4233 11.1426 10.6314 10.9313 10.6314 10.6494C10.6314 10.3677 10.4235 10.1562 10.1461 10.1562L2.35869 10.1563C2.08144 10.1563 1.94283 9.96844 1.89657 9.87458C1.85031 9.78071 1.75795 9.56924 1.89657 9.31093L5.98672 2.10146C6.12535 1.84313 6.35649 1.81971 6.44884 1.81971C6.54119 1.81971 6.77234 1.84313 6.91096 2.10146L10.7237 8.81777C10.8623 9.05268 11.1628 9.12311 11.3937 9.00566C11.6249 8.86479 11.6942 8.55943 11.5786 8.32472L7.76589 1.63189C7.48864 1.16226 7.00333 0.856934 6.44865 0.856934C5.89402 0.856934 5.40884 1.13869 5.13142 1.63189L1.04143 8.84136C0.764185 9.31099 0.764185 9.89808 1.04143 10.3677C1.31868 10.861 1.80401 11.1426 2.35869 11.1426Z" fill="white"/>
<path d="M6.4488 7.62011C6.72604 7.62011 6.93415 7.40879 6.93415 7.12686V4.21498C6.93415 3.93323 6.72621 3.72174 6.4488 3.72174C6.17155 3.72174 5.96345 3.93306 5.96345 4.21498V7.12699C5.96361 7.40874 6.17154 7.62011 6.4488 7.62011Z" fill="white"/>
<path d="M7.00339 8.9117C7.00339 9.22294 6.755 9.47523 6.44876 9.47523C6.1425 9.47523 5.89425 9.22296 5.89425 8.9117C5.89425 8.6003 6.14248 8.34805 6.44876 8.34805C6.75502 8.34805 7.00339 8.60032 7.00339 8.9117Z" fill="white"/>
<path d="M10.5583 11.1426H2.77095C2.49371 11.1426 2.2856 10.9313 2.2856 10.6494C2.2856 10.3677 2.49354 10.1562 2.77095 10.1562L10.5583 10.1563C10.8356 10.1563 10.9742 9.96844 11.0205 9.87458C11.0667 9.78071 11.1591 9.56924 11.0205 9.31093L6.93031 2.10146C6.79168 1.84313 6.56054 1.81971 6.46819 1.81971C6.37584 1.81971 6.14469 1.84313 6.00607 2.10146L2.19334 8.81777C2.05471 9.05268 1.75424 9.12311 1.52329 9.00566C1.29214 8.86479 1.22284 8.55943 1.3384 8.32472L5.15114 1.63189C5.42838 1.16226 5.9137 0.856934 6.46837 0.856934C7.02301 0.856934 7.50819 1.13869 7.78561 1.63189L11.8756 8.84136C12.1528 9.31099 12.1528 9.89808 11.8756 10.3677C11.5984 10.861 11.113 11.1426 10.5583 11.1426Z" fill="white"/>
</svg>
